<?xml version="1.0" encoding="UTF-8"?>
<svg width="87px" height="86px" viewBox="0 0 87 86" version="1.1" xmlns="http://www.w3.org/2000/svg" xmlns:xlink="http://www.w3.org/1999/xlink">
    <!-- Generator: Sketch 42 (36781) - http://www.bohemiancoding.com/sketch -->
    <title>champions-league-logo</title>
    <desc>Created with Sketch.</desc>
    <defs></defs>
    <g id="Page-1" stroke="none" stroke-width="1" fill="none" fill-rule="evenodd">
        <g id="champions-league-logo" fill="#2D2E2F">
            <g id="Group">
                <path d="M43.141,23.111 C47.463,24.303 50.685,24.866 50.685,24.866 C48.831,23.011 47.173,21.104 45.736,19.3 C48.246,15.753 50.22,13.297 50.22,13.297 C47.56,13.887 45.044,14.607 42.791,15.348 C40.65,12.274 39.475,10.11 39.475,10.11 C38.85,12.418 38.549,14.729 38.448,16.899 C34.872,18.284 32.637,19.416 32.637,19.416 C34.571,20.288 36.578,21.048 38.522,21.703 C38.837,25.876 39.681,28.774 39.681,28.774 C40.766,26.838 41.958,24.913 43.141,23.111 L43.141,23.111 Z" id="Shape"></path>
                <path d="M62.871,22.017 C62.283,22.937 61.383,23.594 60.332,24.055 C60.187,21.103 59.736,18.491 59.736,18.491 C58.838,20.917 57.884,23.069 56.965,24.927 C53.797,25.333 50.686,24.867 50.686,24.867 C52.391,26.913 53.717,28.126 54.79,28.945 C53.186,31.65 52.024,33.093 52.024,33.093 C54.266,32.58 56.049,31.728 57.467,30.718 C58.047,31.116 58.547,31.561 59.039,32.314 C59.039,32.314 59.955,31.017 60.268,28.011 C62.535,25.049 62.871,22.017 62.871,22.017 L62.871,22.017 Z" id="Shape"></path>
                <path d="M61.836,13.833 C60.824,11.562 59.369,9.848 57.783,8.557 C56.429,5.714 54.873,4.402 54.873,4.402 C55.004,5.056 54.904,5.796 54.662,6.56 C51.291,4.89 48.219,4.658 48.219,4.658 C50.176,5.941 51.914,7.532 53.407,9.172 C52.032,11.409 50.223,13.297 50.223,13.297 C52.619,12.757 54.549,12.529 56.092,12.488 C58.461,15.75 59.737,18.489 59.737,18.489 C59.782,16.284 59.563,14.361 59.194,12.701 C61.199,13.085 61.836,13.833 61.836,13.833 L61.836,13.833 Z" id="Shape"></path>
                <path d="M48.217,4.658 C46.582,3.836 45.018,3.263 43.564,2.869 C45.417,1.302 47.139,0.906 47.139,0.906 C44.164,0.788 41.608,1.325 39.467,2.149 C36.271,1.894 34.235,2.448 34.235,2.448 C34.714,2.809 35.117,3.453 35.531,4.225 C32.829,6.074 31.457,8.002 31.457,8.002 C33.085,7.193 34.813,6.581 36.517,6.113 C36.703,6.454 36.898,6.795 37.112,7.128 C38.24,8.885 39.479,10.11 39.479,10.11 C39.921,8.005 40.683,6.365 41.558,5.093 C45.357,4.565 48.217,4.658 48.217,4.658 L48.217,4.658 Z" id="Shape"></path>
                <path d="M27.695,11.143 C28.713,10.159 29.955,9.097 31.457,8.002 C31.457,8.002 30.071,8.002 28.606,8.375 C29.575,6.029 30.65,4.729 30.65,4.729 C30.65,4.729 24.481,9.116 23.31,17.001 C23.31,17.001 23.828,15.575 25.586,13.425 C26.284,14.988 27.087,15.972 27.087,15.972 C27.097,14.171 27.34,12.554 27.695,11.143 L27.695,11.143 Z" id="Shape"></path>
                <path d="M32.639,19.416 C30.498,19.483 28.819,19.671 27.511,19.91 C27.144,17.619 27.087,15.971 27.087,15.971 C26.029,17.585 25.345,19.141 24.921,20.591 C23.43,21.144 23.054,21.678 23.054,21.678 C23.286,22.472 23.752,23.245 24.339,23.97 C24.155,27.403 25.266,29.671 25.266,29.671 C25.516,28.468 26.014,27.296 26.64,26.201 C28.466,27.665 30.275,28.62 30.275,28.62 C29.423,27.092 28.795,25.381 28.335,23.725 C30.38,21.155 32.639,19.416 32.639,19.416 L32.639,19.416 Z" id="Shape"></path>
                <path d="M43.231,36.951 C43.231,36.951 41.435,36.234 38.863,34.785 C38.954,33.239 39.193,31.271 39.682,28.774 C39.682,28.774 37.638,30.797 34.992,32.364 C33.456,31.303 31.841,30.056 30.273,28.62 C30.273,28.62 31.037,30.978 32.507,33.576 C31.111,34.098 29.673,34.34 28.358,34.018 C28.358,34.018 29.912,35.958 34.705,36.782 C36.034,38.359 37.653,39.662 39.543,40.115 C39.543,40.115 38.974,39.49 38.847,37.146 C40.154,37.164 41.61,37.106 43.231,36.951 L43.231,36.951 Z" id="Shape"></path>
                <path d="M51.92,36.753 C52.332,34.857 52.024,33.093 52.024,33.093 C50.811,34.837 49.62,36.164 48.516,37.176 C45.547,37.329 43.232,36.951 43.232,36.951 C43.232,36.951 44.557,38.274 46.085,39.038 C44.067,40.285 42.716,40.396 42.716,40.396 C51.544,40.583 56.842,34.819 56.842,34.819 C55.354,35.8 53.631,36.401 51.92,36.753 L51.92,36.753 Z" id="Shape"></path>
                <path d="M33.473,60.236 C35.706,57.682 38.989,56.067 42.648,56.067 C46.41,56.067 49.777,57.775 52.01,60.457 L52.6,59.904 C50.221,57.075 46.653,55.275 42.666,55.275 C38.781,55.275 35.295,56.981 32.916,59.687 L33.473,60.236 L33.473,60.236 Z" id="Shape"></path>
                <polygon id="Shape" points="41.609 53.781 38.042 54.522 37.147 50.205 40.662 49.475 40.827 50.266 38.517 50.747 38.703 51.652 40.908 51.194 41.073 51.986 38.87 52.443 39.083 53.48 41.444 52.991"></polygon>
                <polygon id="Shape" points="48.41 50.997 46.285 50.547 46.08 51.51 48.207 51.958 48.041 52.749 45.914 52.299 45.541 54.069 44.336 53.816 45.246 49.503 48.576 50.205"></polygon>
                <path d="M53.547,58.375 L52.492,57.376 L52.658,56.429 L50.844,55.168 L50.043,55.673 L48.842,55.002 L53.123,52.445 L54.295,53.259 L53.547,58.375 L53.547,58.375 L53.547,58.375 Z M53.186,53.656 L51.565,54.68 L52.85,55.575 L53.186,53.656 L53.186,53.656 Z" id="Shape"></path>
                <path d="M33.961,56.606 C33.17,57.232 31.831,57.746 30.849,56.592 L29.434,54.777 L30.38,54.031 L31.769,55.815 C32.27,56.405 32.9,56.293 33.401,55.897 C33.903,55.504 34.159,54.915 33.704,54.29 L32.313,52.507 L33.259,51.762 L34.675,53.579 C35.52,54.739 34.998,55.785 33.961,56.606 L33.961,56.606 Z" id="Shape"></path>
                <path d="M57.889,54.068 C54.09,50.075 48.723,47.584 42.777,47.584 C36.759,47.584 31.336,50.133 27.53,54.211 L26.887,53.558 C30.884,49.372 36.52,46.766 42.762,46.766 C48.957,46.766 54.549,49.33 58.541,53.457 L57.889,54.068 L57.889,54.068 Z" id="Shape"></path>
                <path d="M62.15,71.596 C59.511,71.596 57.908,69.384 57.908,66.958 C57.908,64.439 59.777,62.611 62.217,62.611 C64.92,62.611 66.551,64.757 66.551,67.117 C66.551,69.913 64.523,71.597 62.15,71.596 L62.15,71.596 L62.15,71.596 Z M62.002,63.883 C60.361,63.883 59.871,65.447 59.871,66.508 C59.871,68.058 60.559,70.324 62.455,70.324 C63.805,70.324 64.59,69.119 64.59,67.673 C64.59,66.136 63.992,63.883 62.002,63.883 L62.002,63.883 Z" id="Shape"></path>
                <path d="M45.994,70.338 C45.994,70.816 46.088,70.986 46.857,71.134 L46.857,71.464 C46.023,71.425 45.503,71.386 45.013,71.386 C44.523,71.386 44.005,71.425 43.423,71.464 L43.423,71.134 C43.941,71.041 44.034,70.816 44.034,70.192 L44.034,63.712 C44.034,63.341 43.872,63.168 43.423,63.155 L43.423,62.786 L47.347,62.786 C49.8,62.786 50.687,63.954 50.687,65.489 C50.687,67.135 49.439,68.14 47.732,68.14 C47.082,68.14 46.127,67.809 46.127,67.532 C46.127,67.411 46.207,67.411 46.328,67.411 C46.445,67.411 46.619,67.453 46.789,67.453 C48.182,67.453 48.725,66.67 48.725,65.568 C48.725,64.378 47.983,63.953 46.817,63.953 L45.995,64.039 L45.995,70.338 L45.994,70.338 L45.994,70.338 Z" id="Shape"></path>
                <path d="M53.25,63.631 C53.25,63.259 53.09,63.088 52.639,63.075 L52.639,62.727 C53.223,62.768 53.741,62.806 54.231,62.806 C54.721,62.806 55.239,62.767 55.819,62.727 L55.819,63.075 C55.372,63.088 55.21,63.259 55.21,63.631 L55.21,70.576 C55.21,70.946 55.37,71.12 55.819,71.133 L55.819,71.464 C55.237,71.426 54.719,71.386 54.231,71.386 C53.741,71.386 53.223,71.427 52.639,71.464 L52.639,71.134 C53.09,71.12 53.25,70.947 53.25,70.577 L53.25,63.631 L53.25,63.631 Z" id="Shape"></path>
                <path d="M69.207,63.624 C69.207,63.254 69.049,63.082 68.596,63.069 L68.596,62.721 C69.18,62.762 69.696,62.8 70.188,62.801 C70.547,62.801 70.944,62.801 71.354,62.721 L75.012,68.649 L75.037,68.649 L75.037,63.808 C75.037,63.121 74.601,63.069 74.242,63.069 L74.242,62.722 C74.68,62.762 75.103,62.801 75.513,62.801 C75.952,62.801 76.39,62.761 76.814,62.722 L76.814,63.069 C76.363,63.082 76.205,63.254 76.205,63.624 L76.205,71.467 L74.797,71.467 L70.399,64.62 L70.372,64.62 L70.372,70.386 C70.372,71.074 70.811,71.128 71.169,71.128 L71.169,71.459 C70.731,71.418 70.308,71.38 69.896,71.38 C69.458,71.38 69.023,71.418 68.599,71.459 L68.597,71.128 C69.048,71.113 69.208,70.94 69.208,70.569 L69.208,63.624 L69.207,63.624 Z" id="Shape"></path>
                <path d="M79.525,68.451 C79.796,69.938 80.773,70.634 82.234,70.634 C83.039,70.634 84.197,70.403 84.197,69.38 C84.197,68.561 83.353,68.342 82.724,68.151 L81.755,67.865 C80.364,67.456 78.972,66.869 78.972,65.257 C78.972,63.144 81.019,62.503 83.052,62.503 C83.911,62.503 84.798,62.652 85.589,62.94 C85.589,63.921 85.644,64.753 85.698,65.462 L85.358,65.462 C85.069,64.208 84.047,63.622 82.819,63.622 C82.137,63.622 80.991,63.839 80.991,64.78 C80.991,65.531 81.645,65.748 82.206,65.914 L83.638,66.322 C85.019,66.717 86.3,67.223 86.3,68.996 C86.3,70.798 84.486,71.752 82.261,71.752 C81.265,71.752 80.216,71.589 79.298,71.262 C79.298,70.184 79.257,69.243 79.193,68.451 L79.525,68.451 L79.525,68.451 L79.525,68.451 Z" id="Shape"></path>
                <path d="M10.61,63.63 C10.61,63.258 10.452,63.085 10.001,63.073 L10.001,62.727 C10.584,62.767 11.1,62.805 11.589,62.805 C12.082,62.805 12.598,62.766 13.18,62.727 L13.18,63.073 C12.731,63.086 12.572,63.258 12.572,63.63 L12.572,66.255 L15.78,66.255 L15.78,63.63 C15.78,63.258 15.62,63.085 15.17,63.073 L15.17,62.727 C15.752,62.767 16.272,62.805 16.761,62.805 C17.251,62.805 17.768,62.766 18.351,62.727 L18.351,63.075 C17.901,63.086 17.741,63.258 17.741,63.63 L17.739,70.576 C17.739,70.947 17.901,71.12 18.35,71.133 L18.35,71.471 C17.767,71.431 17.25,71.392 16.76,71.392 C16.271,71.392 15.751,71.432 15.169,71.471 L15.169,71.133 C15.621,71.119 15.78,70.947 15.78,70.576 L15.78,67.528 L12.572,67.528 L12.572,70.576 C12.572,70.947 12.729,71.12 13.18,71.133 L13.18,71.471 C12.597,71.431 12.082,71.392 11.589,71.392 C11.099,71.392 10.583,71.432 9.999,71.471 L9.999,71.133 C10.452,71.119 10.609,70.947 10.609,70.576 L10.609,63.63 L10.61,63.63 L10.61,63.63 Z" id="Shape"></path>
                <path d="M23.256,67.673 C23.602,66.733 24.026,65.686 24.329,64.624 L24.356,64.624 C24.621,65.964 24.844,66.812 25.124,67.673 L23.256,67.673 L23.256,67.673 L23.256,67.673 Z M20.048,71.464 C20.513,71.425 20.963,71.386 21.426,71.386 C21.877,71.386 22.342,71.425 22.791,71.464 L22.791,71.134 C22.354,71.108 22.167,70.947 22.167,70.71 C22.167,70.577 22.208,70.432 22.274,70.246 L22.857,68.682 L25.441,68.682 L25.864,69.966 C25.932,70.139 25.998,70.445 25.998,70.63 C25.998,70.935 25.826,71.042 25.334,71.134 L25.334,71.464 C25.905,71.425 26.475,71.386 27.044,71.386 C27.6,71.386 28.171,71.425 28.726,71.464 L28.726,71.134 C28.33,71.027 28.131,70.855 27.931,70.272 L25.493,62.729 C25.082,62.768 24.658,62.806 24.248,62.806 C23.837,62.806 23.426,62.767 23.002,62.729 L23.002,63.076 C23.36,63.076 23.507,63.287 23.507,63.419 C23.507,63.553 23.414,63.737 23.335,63.937 L20.737,70.524 C20.603,70.869 20.431,71.082 20.046,71.134 L20.048,71.464 L20.048,71.464 L20.048,71.464 Z" id="Shape"></path>
                <path d="M31.404,64.876 C31.417,64.506 31.445,64.134 31.445,63.605 C31.445,63.192 31.352,63.142 30.849,63.075 L30.849,62.728 C31.245,62.767 31.724,62.805 32.202,62.805 C32.678,62.805 33.155,62.766 33.631,62.728 L35.953,68.874 L38.032,62.728 C38.495,62.769 38.948,62.805 39.409,62.805 C39.874,62.805 40.338,62.768 40.789,62.728 L40.789,63.075 C40.327,63.115 40.258,63.26 40.258,63.62 C40.258,63.989 40.311,64.585 40.35,65.037 L40.774,70.696 C40.802,71.042 41.186,71.094 41.451,71.134 L41.451,71.464 C40.88,71.425 40.297,71.386 39.726,71.386 C39.143,71.386 38.576,71.425 38.031,71.464 L38.031,71.134 C38.679,71.054 38.853,70.934 38.853,70.325 C38.853,70.007 38.812,69.409 38.775,68.972 L38.471,65.022 L38.443,65.022 L36.231,71.537 L35.117,71.537 L32.586,64.942 L32.559,64.942 L32.454,68.827 C32.44,69.516 32.412,69.873 32.412,70.23 C32.412,70.893 32.478,71.041 33.274,71.132 L33.274,71.463 C32.743,71.424 32.253,71.385 31.75,71.385 C31.26,71.385 30.768,71.424 30.358,71.463 L30.358,71.133 C30.875,71.093 31.087,70.975 31.114,70.416 L31.404,64.876 L31.404,64.876 Z" id="Shape"></path>
                <path d="M8.004,70.979 C7.096,71.674 5.795,71.956 4.945,71.956 C1.785,71.956 0,69.503 0,66.992 C0,64.42 1.785,61.937 5.208,61.937 C6.41,61.937 7.27,62.166 7.606,62.297 C7.606,63.302 7.661,64.271 7.734,65.232 L7.352,65.231 C7.117,64.005 6.265,63.356 5.033,63.356 C3.365,63.356 2.079,64.668 2.079,66.886 C2.079,68.556 3.454,70.446 5.384,70.446 C6.204,70.446 7.385,69.999 8.173,69.334 L8.004,70.979 L8.004,70.979 Z" id="Shape"></path>
                <path d="M22.352,76.257 C22.352,75.971 22.23,75.838 21.883,75.828 L21.883,75.547 C22.333,75.578 22.732,75.609 23.112,75.609 C23.542,75.609 24.163,75.579 24.462,75.547 L24.462,75.828 C23.941,75.848 23.869,76.102 23.869,76.39 L23.869,81.4 L25.761,81.4 C26.435,81.4 26.713,81.093 26.885,80.316 L27.217,80.316 C27.093,80.981 26.981,81.636 26.971,82.3 L21.883,82.3 L21.883,82.022 C22.23,82.01 22.352,81.879 22.352,81.591 L22.352,76.257 L22.352,76.257 Z" id="Shape"></path>
                <path d="M28.864,76.292 C28.864,76.005 28.742,75.871 28.394,75.861 L28.394,75.581 L33.564,75.581 C33.578,76.144 33.595,76.601 33.647,77.154 L33.365,77.154 C33.264,76.591 33.12,76.397 32.567,76.397 L30.38,76.397 L30.38,78.374 L31.739,78.375 C32.2,78.375 32.271,78.221 32.332,77.853 L32.612,77.853 C32.582,78.108 32.55,78.55 32.55,78.828 C32.55,79.103 32.581,79.553 32.612,79.8 L32.332,79.8 C32.27,79.431 32.2,79.277 31.739,79.277 L30.38,79.277 L30.38,81.402 L32.68,81.403 C33.233,81.403 33.406,81.219 33.58,80.358 L33.921,80.358 C33.83,81.199 33.809,81.742 33.799,82.303 L28.393,82.303 L28.393,82.024 C28.741,82.013 28.863,81.881 28.863,81.593 L28.863,76.292 L28.864,76.292 Z" id="Shape"></path>
                <path d="M35.148,82.025 C35.444,81.983 35.578,81.822 35.682,81.556 L37.686,76.483 C37.748,76.33 37.817,76.187 37.817,76.086 C37.817,75.982 37.708,75.82 37.43,75.82 L37.43,75.542 C37.756,75.572 38.075,75.604 38.392,75.604 C38.708,75.604 39.036,75.574 39.354,75.542 L41.237,81.362 C41.389,81.81 41.543,81.943 41.849,82.025 L41.849,82.303 C41.421,82.274 40.981,82.242 40.552,82.242 C40.112,82.242 39.671,82.272 39.231,82.303 L39.231,82.025 C39.611,81.954 39.743,81.871 39.743,81.637 C39.743,81.494 39.691,81.258 39.64,81.125 L39.312,80.137 L37.315,80.137 L36.865,81.341 C36.813,81.482 36.783,81.595 36.783,81.698 C36.783,81.881 36.927,82.002 37.265,82.024 L37.265,82.302 C36.919,82.273 36.559,82.241 36.21,82.241 C35.853,82.241 35.504,82.271 35.146,82.302 L35.148,82.025 L35.148,82.025 L35.148,82.025 Z M39.068,79.362 C38.854,78.696 38.679,78.045 38.476,77.013 L38.455,77.013 C38.219,77.829 37.892,78.636 37.627,79.362 L39.068,79.362 L39.068,79.362 Z" id="Shape"></path>
                <path d="M47.328,79.911 C47.328,79.501 47.142,79.48 46.683,79.47 L46.683,79.129 C47.101,79.159 47.523,79.191 47.953,79.191 C48.412,79.191 48.863,79.16 49.322,79.129 L49.322,79.449 C48.965,79.46 48.779,79.552 48.779,80.011 L48.779,82.302 L48.185,82.302 L47.953,81.616 C47.305,82.221 46.629,82.435 45.933,82.435 C44.009,82.435 42.781,80.849 42.781,79.006 C42.781,76.785 44.265,75.441 46.476,75.441 C47.183,75.441 47.943,75.573 48.494,75.917 C48.494,76.422 48.515,76.996 48.556,77.704 L48.263,77.704 C48.128,76.792 47.265,76.345 46.413,76.345 C44.991,76.345 44.296,77.431 44.296,78.751 C44.296,80.022 45.013,81.454 46.2,81.454 C46.927,81.454 47.327,81.116 47.327,80.644 L47.327,79.911 L47.328,79.911 L47.328,79.911 Z" id="Shape"></path>
                <path d="M51.379,76.257 C51.379,75.971 51.256,75.838 50.908,75.828 L50.908,75.547 C51.236,75.578 51.656,75.609 52.086,75.609 C52.617,75.609 53.037,75.579 53.447,75.547 L53.447,75.828 C53.006,75.848 52.894,75.93 52.894,76.329 L52.894,80.153 C52.894,81.31 53.374,81.537 54.205,81.537 C55.033,81.537 55.516,81.289 55.516,80.153 L55.516,76.329 C55.516,75.93 55.403,75.848 54.961,75.828 L54.961,75.547 C55.373,75.578 55.789,75.609 56.322,75.609 C56.752,75.609 57.172,75.579 57.5,75.547 L57.5,75.828 C57.15,75.838 57.027,75.971 57.027,76.257 L57.027,79.94 C57.027,81.832 56.045,82.436 54.203,82.436 C52.359,82.436 51.377,81.831 51.377,80.081 L51.377,76.258 L51.379,76.258 L51.379,76.257 Z" id="Shape"></path>
                <path d="M59.666,76.292 C59.666,76.005 59.545,75.871 59.195,75.861 L59.195,75.581 L64.367,75.581 C64.377,76.144 64.398,76.601 64.449,77.154 L64.17,77.154 C64.066,76.591 63.926,76.397 63.369,76.397 L61.181,76.397 L61.181,78.343 L62.542,78.343 C62.999,78.343 63.073,78.19 63.134,77.821 L63.413,77.822 C63.382,78.077 63.354,78.518 63.354,78.793 C63.354,79.071 63.381,79.522 63.413,79.769 L63.134,79.769 C63.073,79.401 62.999,79.246 62.54,79.246 L61.181,79.246 L61.181,81.402 L63.484,81.402 C64.035,81.402 64.211,81.218 64.382,80.357 L64.724,80.357 C64.63,81.198 64.611,81.741 64.601,82.302 L59.195,82.302 L59.195,82.023 C59.545,82.012 59.666,81.88 59.666,81.592 L59.666,76.292 L59.666,76.292 Z" id="Shape"></path>
                <path d="M66.314,85.061 C66.98,85.061 67.548,84.544 67.548,83.835 C67.548,83.132 66.98,82.615 66.314,82.615 C65.64,82.615 65.072,83.131 65.072,83.835 C65.072,84.544 65.641,85.061 66.314,85.061 L66.314,85.061 L66.314,85.061 Z M65.316,83.835 C65.316,83.256 65.752,82.82 66.314,82.82 C66.865,82.82 67.302,83.257 67.302,83.835 C67.302,84.424 66.864,84.857 66.314,84.857 C65.752,84.858 65.316,84.424 65.316,83.835 L65.316,83.835 Z M66.055,83.932 L66.301,83.932 L66.674,84.544 L66.91,84.544 L66.51,83.923 C66.717,83.897 66.875,83.786 66.875,83.532 C66.875,83.256 66.711,83.131 66.377,83.131 L65.84,83.131 L65.84,84.544 L66.055,84.544 L66.055,83.932 L66.055,83.932 L66.055,83.932 Z M66.055,83.75 L66.055,83.312 L66.348,83.312 C66.496,83.312 66.655,83.344 66.655,83.519 C66.655,83.738 66.493,83.749 66.311,83.749 L66.055,83.749 L66.055,83.75 Z" id="Shape"></path>
            </g>
        </g>
    </g>
</svg>