<?xml version="1.0" encoding="UTF-8"?>
<svg width="40px" height="41px" viewBox="0 0 40 41" version="1.1" xmlns="http://www.w3.org/2000/svg" xmlns:xlink="http://www.w3.org/1999/xlink">
    <!-- Generator: Sketch 42 (36781) - http://www.bohemiancoding.com/sketch -->
    <title>champions-league-logo</title>
    <desc>Created with Sketch.</desc>
    <defs></defs>
    <g id="Page-1" stroke="none" stroke-width="1" fill="none" fill-rule="evenodd">
        <g id="champions-league-logo" fill="#2D2E2F">
            <g id="Group">
                <path d="M20.141,23.111 C24.463,24.303 27.685,24.866 27.685,24.866 C25.831,23.011 24.173,21.104 22.736,19.3 C25.246,15.753 27.22,13.297 27.22,13.297 C24.56,13.887 22.044,14.607 19.791,15.348 C17.65,12.274 16.475,10.11 16.475,10.11 C15.85,12.418 15.549,14.729 15.448,16.899 C11.872,18.284 9.637,19.416 9.637,19.416 C11.571,20.288 13.578,21.048 15.522,21.703 C15.837,25.876 16.681,28.774 16.681,28.774 C17.766,26.838 18.958,24.913 20.141,23.111 L20.141,23.111 Z" id="Shape"></path>
                <path d="M39.871,22.017 C39.283,22.937 38.383,23.594 37.332,24.055 C37.187,21.103 36.736,18.491 36.736,18.491 C35.838,20.917 34.884,23.069 33.965,24.927 C30.797,25.333 27.686,24.867 27.686,24.867 C29.391,26.913 30.717,28.126 31.79,28.945 C30.186,31.65 29.024,33.093 29.024,33.093 C31.266,32.58 33.049,31.728 34.467,30.718 C35.047,31.116 35.547,31.561 36.039,32.314 C36.039,32.314 36.955,31.017 37.268,28.011 C39.535,25.049 39.871,22.017 39.871,22.017 L39.871,22.017 Z" id="Shape"></path>
                <path d="M38.836,13.833 C37.824,11.562 36.369,9.848 34.783,8.557 C33.429,5.714 31.873,4.402 31.873,4.402 C32.004,5.056 31.904,5.796 31.662,6.56 C28.291,4.89 25.219,4.658 25.219,4.658 C27.176,5.941 28.914,7.532 30.407,9.172 C29.032,11.409 27.223,13.297 27.223,13.297 C29.619,12.757 31.549,12.529 33.092,12.488 C35.461,15.75 36.737,18.489 36.737,18.489 C36.782,16.284 36.563,14.361 36.194,12.701 C38.199,13.085 38.836,13.833 38.836,13.833 L38.836,13.833 Z" id="Shape"></path>
                <path d="M25.217,4.658 C23.582,3.836 22.018,3.263 20.564,2.869 C22.417,1.302 24.139,0.906 24.139,0.906 C21.164,0.788 18.608,1.325 16.467,2.149 C13.271,1.894 11.235,2.448 11.235,2.448 C11.714,2.809 12.117,3.453 12.531,4.225 C9.829,6.074 8.457,8.002 8.457,8.002 C10.085,7.193 11.813,6.581 13.517,6.113 C13.703,6.454 13.898,6.795 14.112,7.128 C15.24,8.885 16.479,10.11 16.479,10.11 C16.921,8.005 17.683,6.365 18.558,5.093 C22.357,4.565 25.217,4.658 25.217,4.658 L25.217,4.658 Z" id="Shape"></path>
                <path d="M4.695,11.143 C5.713,10.159 6.955,9.097 8.457,8.002 C8.457,8.002 7.071,8.002 5.606,8.375 C6.575,6.029 7.65,4.729 7.65,4.729 C7.65,4.729 1.481,9.116 0.31,17.001 C0.31,17.001 0.828,15.575 2.586,13.425 C3.284,14.988 4.087,15.972 4.087,15.972 C4.097,14.171 4.34,12.554 4.695,11.143 L4.695,11.143 Z" id="Shape"></path>
                <path d="M9.639,19.416 C7.498,19.483 5.819,19.671 4.511,19.91 C4.144,17.619 4.087,15.971 4.087,15.971 C3.029,17.585 2.345,19.141 1.921,20.591 C0.43,21.144 0.054,21.678 0.054,21.678 C0.286,22.472 0.752,23.245 1.339,23.97 C1.155,27.403 2.266,29.671 2.266,29.671 C2.516,28.468 3.014,27.296 3.64,26.201 C5.466,27.665 7.275,28.62 7.275,28.62 C6.423,27.092 5.795,25.381 5.335,23.725 C7.38,21.155 9.639,19.416 9.639,19.416 L9.639,19.416 Z" id="Shape"></path>
                <path d="M20.231,36.951 C20.231,36.951 18.435,36.234 15.863,34.785 C15.954,33.239 16.193,31.271 16.682,28.774 C16.682,28.774 14.638,30.797 11.992,32.364 C10.456,31.303 8.841,30.056 7.273,28.62 C7.273,28.62 8.037,30.978 9.507,33.576 C8.111,34.098 6.673,34.34 5.358,34.018 C5.358,34.018 6.912,35.958 11.705,36.782 C13.034,38.359 14.653,39.662 16.543,40.115 C16.543,40.115 15.974,39.49 15.847,37.146 C17.154,37.164 18.61,37.106 20.231,36.951 L20.231,36.951 Z" id="Shape"></path>
                <path d="M28.92,36.753 C29.332,34.857 29.024,33.093 29.024,33.093 C27.811,34.837 26.62,36.164 25.516,37.176 C22.547,37.329 20.232,36.951 20.232,36.951 C20.232,36.951 21.557,38.274 23.085,39.038 C21.067,40.285 19.716,40.396 19.716,40.396 C28.544,40.583 33.842,34.819 33.842,34.819 C32.354,35.8 30.631,36.401 28.92,36.753 L28.92,36.753 Z" id="Shape"></path>
            </g>
        </g>
    </g>
</svg>